<?xml version="1.0" standalone="no"?>
<!DOCTYPE svg PUBLIC "-//W3C//DTD SVG 20010904//EN"
 "http://www.w3.org/TR/2001/REC-SVG-20010904/DTD/svg10.dtd">
<svg version="1.0" xmlns="http://www.w3.org/2000/svg"
 width="260.000000pt" height="260.000000pt" viewBox="0 0 260.000000 260.000000"
 preserveAspectRatio="xMidYMid meet">
<metadata>
Created by potrace 1.14, written by Peter Selinger 2001-2017
</metadata>
<g transform="translate(0.000000,260.000000) scale(0.100000,-0.100000)"
fill="#000000" stroke="none">
<path d="M0 1300 l0 -1300 1300 0 1300 0 0 1300 0 1300 -1300 0 -1300 0 0
-1300z m1737 182 l432 -757 -275 -3 c-151 -1 -398 -1 -549 0 l-274 3 63 110
64 110 285 5 285 5 -299 525 c-164 289 -299 528 -299 533 0 11 124 227 130
227 3 -1 199 -341 437 -758z m-357 66 c129 -226 252 -442 273 -480 l39 -68
-134 0 -133 0 -140 245 c-77 135 -142 245 -145 245 -3 0 -138 -233 -300 -518
l-296 -517 -133 -3 c-82 -2 -132 1 -129 7 7 22 853 1501 858 1501 3 0 111
-185 240 -412z m-170 -267 l61 -110 -140 -245 c-78 -135 -141 -248 -141 -251
0 -3 273 -6 606 -7 l606 -3 60 -103 c33 -57 58 -106 55 -108 -2 -2 -391 -3
-864 -2 l-861 3 271 472 c149 259 274 470 278 467 4 -2 35 -53 69 -113z"/>
</g>
</svg>
